{"title":"Bigfoot Wars 2014 DVDRip XviD AC3 - FWOLF","uid":11269126,"size":1082554740,"categoryP":"video","categoryS":"movies","magnet":"?xt=urn:btih:1abd6cc1ea34b824f9da404009cb81b544df38f2&amp;dn=Bigfoot+Wars+2014+DVDRip+XviD+AC3+-+FWOLF&amp;tr=udp%3A%2F%2Ftracker.openbittorrent.com%3A80&amp;tr=udp%3A%2F%2Fopen.demonii.com%3A1337&amp;tr=udp%3A%2F%2Ftracker.coppersurfer.tk%3A6969&amp;tr=udp%3A%2F%2Fexodus.desync.com%3A6969","seeders":0,"leechers":1,"uploader":"TvTeam","files":5,"time":1414062278,"description":" &lt;a href=&quot;http://www.torrenting.com&quot; rel=&quot;nofollow&quot; target=&quot;_NEW&quot;&gt;http://www.torrenting.com&lt;/a&gt;\n\nSign up is OPEN - for time being. Come and have fun.\n\n\n....Bigfoot Wars 2014 DVDRip XviD AC3 - FWOLF\n\nimdb.... &lt;a href=&quot;\nhttp://www.imdb.com/title/tt2992096/&quot; rel=&quot;nofollow&quot; target=&quot;_NEW&quot;&gt;\nhttp://www.imdb.com/title/tt2992096/&lt;/a&gt;\n\n\nA small town becomes the focal point of a brutal \nclash between man and a legendary beast.\n\n\nDirector: Brian T. Jaynes\n\nWriters:  Andrea Doss, Frederic Doss   \n\nStars:    C. Thomas Howell, Judd Nelson, Billy Blair\n\n\n\n\nFormat                                   : AVI\nFormat/Info                              : Audio Video Interleave\nFile size                                : 1 019 MiB\nDuration                                 : 1h 11mn\nOverall bit rate                         : 1 984 Kbps\n\nVideo\nID                                       : 0\nFormat                                   : MPEG-4 Visual\nFormat profile                           : Advanced Simple@L5\nFormat settings, BVOP                    : 2\nFormat settings, QPel                    : Yes\nFormat settings, GMC                     : No warppoints\nFormat settings, Matrix                  : Default (H.263)\nCodec ID                                 : XVID\nCodec ID/Hint                            : XviD\nDuration                                 : 1h 11mn\nBit rate                                 : 1 720 Kbps\nWidth                                    : 720 pixels\nHeight                                   : 384 pixels\nDisplay aspect ratio                     : 1.85:1\nFrame rate                               : 25.000 fps\nColor space                              : YUV\nChroma subsampling                       : 4:2:0\nBit depth                                : 8 bits\nScan type                                : Progressive\nCompression mode                         : Lossy\nBits/(Pixel*Frame)                       : 0.249\nStream size                              : 884 MiB (87%)\nWriting library                          : XviD 1.2.1 (UTC 2008-12-04)\n\nAudio\nID                                       : 1\nFormat                                   : AC-3\nFormat/Info                              : Audio Coding 3\nMode extension                           : CM (complete main)\nFormat settings, Endianness              : Big\nCodec ID                                 : 2000\nDuration                                 : 1h 11mn\nBit rate mode                            : Constant\nBit rate                                 : 256 Kbps\nChannel(s)                               : 2 channels\nChannel positions                        : Front: L R\nSampling rate                            : 48.0 KHz\nBit depth                                : 16 bits\nCompression mode                         : Lossy\nStream size                              : 132 MiB (13%)\nAlignment                                : Aligned on interleaves\nInterleave, duration                     : 64 ms (1.60 video frames)\nInterleave, preload duration             : 192 ms\nTitle                                    : English\n\n\nEncoded....................FWOLF              \n\nSource..................... DVD5/PAL 5 GB.3.30 (Thanks!)\n\nSample.....................Yes\n\n[img]http://s22.postimg.org/bilaz8aox/image.png[/img]\n\n\n\n\n[img]http://s28.postimg.org/fjkudqfv1/image.png[/img]\n\n\n\n\nGreetz To: PsiX | Blacksheep | CFR | tomcat-12...\n.....and all P2P Encoders and Groups","torrent":{"xt":"urn:btih:1abd6cc1ea34b824f9da404009cb81b544df38f2","amp;dn":"Bigfoot+Wars+2014+DVDRip+XviD+AC3+-+FWOLF","amp;tr":["udp%3A%2F%2Ftracker.openbittorrent.com%3A80","udp%3A%2F%2Fopen.demonii.com%3A1337","udp%3A%2F%2Ftracker.coppersurfer.tk%3A6969","udp%3A%2F%2Fexodus.desync.com%3A6969"],"infoHash":"1abd6cc1ea34b824f9da404009cb81b544df38f2","infoHashBuffer":{"type":"Buffer","data":[26,189,108,193,234,52,184,36,249,218,64,64,9,203,129,181,68,223,56,242]},"announce":[],"urlList":[]}}